<svg xmlns="http://www.w3.org/2000/svg" xmlns:xlink="http://www.w3.org/1999/xlink" width="2000" zoomAndPan="magnify" viewBox="0 0 1500 1499.999933" height="2000" preserveAspectRatio="xMidYMid meet" version="1.0"><defs><g/><clipPath id="46159fbbf5"><rect x="0" width="631" y="0" height="215"/></clipPath><clipPath id="c950e7d1c5"><rect x="0" width="614" y="0" height="215"/></clipPath></defs><rect x="-150" width="1800" fill="#ffffff" y="-149.999993" height="1799.99992" fill-opacity="1"/><rect x="-150" width="1800" fill="#fff9eb" y="-149.999993" height="1799.99992" fill-opacity="1"/><g transform="matrix(1, 0, 0, 1, 435, 578)"><g clip-path="url(#46159fbbf5)"><g fill="#302e2e" fill-opacity="1"><g transform="translate(1.06449, 158.221904)"><g><path d="M 52.609375 0 L 14.21875 0 L 14.21875 -156.953125 L 48.78125 -156.953125 L 109.875 -57.6875 L 108.171875 -156.953125 L 146.5625 -156.953125 L 146.5625 0 L 111.78125 0 L 51.546875 -95.875 Z M 52.609375 0 "/></g></g></g><g fill="#302e2e" fill-opacity="1"><g transform="translate(162.059427, 158.221904)"><g><path d="M 47.9375 -156.953125 L 47.9375 -130.234375 L 12.71875 -130.234375 L 12.71875 -156.953125 Z M 47.9375 -117.71875 L 47.9375 0 L 12.71875 0 L 12.71875 -117.71875 Z M 47.9375 -117.71875 "/></g></g></g><g fill="#302e2e" fill-opacity="1"><g transform="translate(222.724188, 158.221904)"><g><path d="M 69.578125 -88.875 C 61.648438 -88.875 55.140625 -86.007812 50.046875 -80.28125 C 44.960938 -74.550781 42.421875 -67.445312 42.421875 -58.96875 C 42.421875 -50.34375 45.035156 -43.203125 50.265625 -37.546875 C 55.503906 -31.890625 62.222656 -29.0625 70.421875 -29.0625 C 81.867188 -29.0625 90.351562 -34.289062 95.875 -44.75 L 131.71875 -44.75 C 129.457031 -35 125.320312 -26.476562 119.3125 -19.1875 C 113.300781 -11.90625 105.984375 -6.25 97.359375 -2.21875 C 88.734375 1.800781 79.398438 3.8125 69.359375 3.8125 C 57.898438 3.8125 47.429688 0.980469 37.953125 -4.671875 C 28.484375 -10.328125 20.957031 -17.960938 15.375 -27.578125 C 9.789062 -37.191406 7 -47.722656 7 -59.171875 C 7 -70.628906 9.753906 -81.164062 15.265625 -90.78125 C 20.785156 -100.394531 28.28125 -107.957031 37.75 -113.46875 C 47.226562 -118.988281 57.550781 -121.75 68.71875 -121.75 C 78.90625 -121.75 88.378906 -119.695312 97.140625 -115.59375 C 105.910156 -111.5 113.300781 -105.738281 119.3125 -98.3125 C 125.320312 -90.882812 129.382812 -82.222656 131.5 -72.328125 L 95.875 -72.328125 C 90.78125 -83.359375 82.015625 -88.875 69.578125 -88.875 Z M 69.578125 -88.875 "/></g></g></g><g fill="#302e2e" fill-opacity="1"><g transform="translate(357.841142, 158.221904)"><g><path d="M 67.65625 -88.65625 C 54.507812 -88.65625 47.9375 -81.160156 47.9375 -66.171875 L 47.9375 0 L 12.71875 0 L 12.71875 -156.953125 L 47.9375 -156.953125 L 47.9375 -106.484375 C 50.476562 -111.285156 54.472656 -115.03125 59.921875 -117.71875 C 65.367188 -120.40625 71.554688 -121.75 78.484375 -121.75 C 92.054688 -121.75 102.660156 -117.613281 110.296875 -109.34375 C 117.929688 -101.070312 121.75 -89.300781 121.75 -74.03125 L 121.75 0 L 86.546875 0 L 86.546875 -64.6875 C 86.546875 -80.664062 80.25 -88.65625 67.65625 -88.65625 Z M 67.65625 -88.65625 "/></g></g></g><g fill="#302e2e" fill-opacity="1"><g transform="translate(491.897541, 158.221904)"><g><path d="M 68.71875 -25.875 C 73.382812 -25.875 77.378906 -26.757812 80.703125 -28.53125 C 84.023438 -30.300781 87.171875 -33.09375 90.140625 -36.90625 L 126.203125 -36.90625 C 120.546875 -24.039062 112.660156 -14.035156 102.546875 -6.890625 C 92.441406 0.242188 81.164062 3.8125 68.71875 3.8125 C 57.550781 3.8125 47.191406 1.054688 37.640625 -4.453125 C 28.097656 -9.960938 20.5 -17.488281 14.84375 -27.03125 C 9.1875 -36.582031 6.359375 -47.085938 6.359375 -58.546875 C 6.359375 -69.710938 9.113281 -80.140625 14.625 -89.828125 C 20.144531 -99.515625 27.609375 -107.253906 37.015625 -113.046875 C 46.421875 -118.847656 56.78125 -121.75 68.09375 -121.75 C 79.6875 -121.75 90.21875 -118.921875 99.6875 -113.265625 C 109.164062 -107.609375 116.625 -99.898438 122.0625 -90.140625 C 127.507812 -80.390625 130.234375 -69.503906 130.234375 -57.484375 C 130.234375 -54.085938 129.953125 -50.976562 129.390625 -48.15625 L 41.15625 -48.15625 C 42.144531 -41.5 45.179688 -36.117188 50.265625 -32.015625 C 55.359375 -27.921875 61.507812 -25.875 68.71875 -25.875 Z M 68.09375 -92.0625 C 61.582031 -92.0625 55.882812 -90.253906 51 -86.640625 C 46.125 -83.035156 42.984375 -78.125 41.578125 -71.90625 L 95.03125 -71.90625 C 93.613281 -77.988281 90.460938 -82.867188 85.578125 -86.546875 C 80.703125 -90.222656 74.875 -92.0625 68.09375 -92.0625 Z M 68.09375 -92.0625 "/></g></g></g></g></g><g transform="matrix(1, 0, 0, 1, 443, 707)"><g clip-path="url(#c950e7d1c5)"><g fill="#302e2e" fill-opacity="1"><g transform="translate(612.657407, 56.777281)"><g><path d="M -47.9375 156.953125 L -47.9375 130.234375 L -12.71875 130.234375 L -12.71875 156.953125 Z M -47.9375 117.71875 L -47.9375 0 L -12.71875 0 L -12.71875 117.71875 Z M -47.9375 117.71875 "/></g></g></g><g fill="#302e2e" fill-opacity="1"><g transform="translate(551.992646, 56.777281)"><g><path d="M -68.09375 88.65625 C -61.019531 88.65625 -55.890625 86.710938 -52.703125 82.828125 C -49.523438 78.941406 -47.9375 72.96875 -47.9375 64.90625 L -47.9375 0 L -12.71875 0 L -12.71875 117.71875 L -45.609375 117.71875 L -45.609375 105.203125 L -46.03125 105.203125 C -49.707031 111.140625 -54.125 115.378906 -59.28125 117.921875 C -64.445312 120.472656 -70.707031 121.75 -78.0625 121.75 C -85.695312 121.75 -92.800781 120.191406 -99.375 117.078125 C -105.945312 113.972656 -111.316406 108.953125 -115.484375 102.015625 C -119.660156 95.085938 -121.75 86.113281 -121.75 75.09375 L -121.75 0 L -86.546875 0 L -86.546875 65.328125 C -86.546875 73.390625 -85.054688 79.289062 -82.078125 83.03125 C -79.109375 86.78125 -74.445312 88.65625 -68.09375 88.65625 Z M -68.09375 88.65625 "/></g></g></g><g fill="#302e2e" fill-opacity="1"><g transform="translate(417.936246, 56.777281)"><g><path d="M -47.9375 156.953125 L -47.9375 108.390625 C -56.28125 117.296875 -67.453125 121.75 -81.453125 121.75 C -91.773438 121.75 -101.425781 119.238281 -110.40625 114.21875 C -119.382812 109.195312 -126.554688 101.984375 -131.921875 92.578125 C -137.296875 83.179688 -139.984375 72.191406 -139.984375 59.609375 C -139.984375 47.585938 -137.546875 36.734375 -132.671875 27.046875 C -127.796875 17.359375 -120.867188 9.753906 -111.890625 4.234375 C -102.910156 -1.273438 -92.476562 -4.03125 -80.59375 -4.03125 C -73.382812 -4.03125 -66.632812 -2.507812 -60.34375 0.53125 C -54.050781 3.570312 -49.5625 7.566406 -46.875 12.515625 L -46.453125 12.515625 L -46.453125 0 L -12.71875 0 L -12.71875 156.953125 Z M -104.78125 58.96875 C -104.78125 64.195312 -103.539062 69.109375 -101.0625 73.703125 C -98.59375 78.296875 -95.128906 81.972656 -90.671875 84.734375 C -86.222656 87.492188 -81.238281 88.875 -75.71875 88.875 C -70.34375 88.875 -65.425781 87.53125 -60.96875 84.84375 C -56.519531 82.15625 -53.019531 78.546875 -50.46875 74.015625 C -47.925781 69.492188 -46.65625 64.546875 -46.65625 59.171875 C -46.65625 50.546875 -49.378906 43.332031 -54.828125 37.53125 C -60.273438 31.738281 -67.097656 28.84375 -75.296875 28.84375 C -80.671875 28.84375 -85.617188 30.1875 -90.140625 32.875 C -94.671875 35.5625 -98.242188 39.203125 -100.859375 43.796875 C -103.472656 48.390625 -104.78125 53.445312 -104.78125 58.96875 Z M -104.78125 58.96875 "/></g></g></g><g fill="#302e2e" fill-opacity="1"><g transform="translate(270.940886, 56.777281)"><g><path d="M -70.625 -3.609375 C -58.75 -3.609375 -48.003906 -0.886719 -38.390625 4.546875 C -28.773438 9.992188 -21.175781 17.457031 -15.59375 26.9375 C -10.007812 36.414062 -7.21875 47.09375 -7.21875 58.96875 C -7.21875 70.84375 -10.046875 81.550781 -15.703125 91.09375 C -21.359375 100.644531 -29.023438 108.101562 -38.703125 113.46875 C -48.390625 118.84375 -59.03125 121.53125 -70.625 121.53125 C -82.363281 121.53125 -93.078125 118.84375 -102.765625 113.46875 C -112.453125 108.101562 -120.085938 100.644531 -125.671875 91.09375 C -131.253906 81.550781 -134.046875 70.984375 -134.046875 59.390625 C -134.046875 47.367188 -131.253906 36.550781 -125.671875 26.9375 C -120.085938 17.320312 -112.453125 9.828125 -102.765625 4.453125 C -93.078125 -0.917969 -82.363281 -3.609375 -70.625 -3.609375 Z M -98.84375 58.96875 C -98.84375 64.195312 -97.601562 69.070312 -95.125 73.59375 C -92.65625 78.125 -89.265625 81.765625 -84.953125 84.515625 C -80.640625 87.273438 -75.796875 88.65625 -70.421875 88.65625 C -65.328125 88.65625 -60.660156 87.3125 -56.421875 84.625 C -52.179688 81.9375 -48.785156 78.296875 -46.234375 73.703125 C -43.691406 69.109375 -42.421875 64.195312 -42.421875 58.96875 C -42.421875 53.59375 -43.65625 48.640625 -46.125 44.109375 C -48.601562 39.585938 -52 35.984375 -56.3125 33.296875 C -60.625 30.609375 -65.394531 29.265625 -70.625 29.265625 C -76 29.265625 -80.84375 30.644531 -85.15625 33.40625 C -89.46875 36.164062 -92.828125 39.804688 -95.234375 44.328125 C -97.640625 48.859375 -98.84375 53.738281 -98.84375 58.96875 Z M -98.84375 58.96875 "/></g></g></g><g fill="#302e2e" fill-opacity="1"><g transform="translate(134.975463, 56.777281)"><g><path d="M -42.640625 0 L -0.21875 0 L -44.96875 63 L -5.296875 117.71875 L -47.515625 117.71875 L -66.609375 86.75 L -85.484375 117.71875 L -127.265625 117.71875 L -87.59375 63 L -133.203125 0 L -90.140625 0 L -66.609375 36.484375 Z M -42.640625 0 "/></g></g></g></g></g></svg>